<mxfile host="app.diagrams.net" modified="2020-10-13T15:34:19.648Z" agent="5.0 (Windows NT 6.1; Win64; x64) AppleWebKit/537.36 (KHTML, like Gecko) Chrome/85.0.4183.121 Safari/537.36" etag="ke-AzWK3hGvIf-kKxM3Q" version="13.6.2" type="github">
  <diagram id="qUXZ5rpPonSF5GozBRxC" name="Page-1">
    <mxGraphModel dx="868" dy="482" grid="1" gridSize="10" guides="1" tooltips="1" connect="1" arrows="1" fold="1" page="1" pageScale="1" pageWidth="850" pageHeight="1100" math="0" shadow="0">
      <root>
        <mxCell id="0" />
        <mxCell id="1" parent="0" />
        <mxCell id="pSzdoDPTIERMUr_ss-79-1" value="&lt;b&gt;&lt;font style=&quot;font-size: 24px&quot;&gt;Start&lt;/font&gt;&lt;/b&gt;" style="ellipse;whiteSpace=wrap;html=1;" parent="1" vertex="1">
          <mxGeometry x="280" y="10" width="120" height="50" as="geometry" />
        </mxCell>
        <mxCell id="pSzdoDPTIERMUr_ss-79-2" value="" style="shape=singleArrow;direction=south;whiteSpace=wrap;html=1;" parent="1" vertex="1">
          <mxGeometry x="325" y="60" width="30" height="70" as="geometry" />
        </mxCell>
        <mxCell id="pSzdoDPTIERMUr_ss-79-3" value="&lt;b&gt;&lt;font style=&quot;font-size: 24px&quot;&gt;Send Value&lt;/font&gt;&lt;/b&gt;" style="rounded=0;whiteSpace=wrap;html=1;" parent="1" vertex="1">
          <mxGeometry x="250" y="130" width="180" height="50" as="geometry" />
        </mxCell>
        <mxCell id="pSzdoDPTIERMUr_ss-79-5" value="" style="shape=singleArrow;direction=south;whiteSpace=wrap;html=1;" parent="1" vertex="1">
          <mxGeometry x="325" y="180" width="30" height="70" as="geometry" />
        </mxCell>
        <mxCell id="pSzdoDPTIERMUr_ss-79-6" value="&lt;span style=&quot;font-size: 24px&quot;&gt;&lt;b&gt;Display&lt;/b&gt;&lt;/span&gt;" style="rounded=0;whiteSpace=wrap;html=1;" parent="1" vertex="1">
          <mxGeometry x="245" y="250" width="180" height="50" as="geometry" />
        </mxCell>
        <mxCell id="pSzdoDPTIERMUr_ss-79-7" value="" style="shape=singleArrow;direction=south;whiteSpace=wrap;html=1;" parent="1" vertex="1">
          <mxGeometry x="325" y="300" width="30" height="70" as="geometry" />
        </mxCell>
        <mxCell id="pSzdoDPTIERMUr_ss-79-29" style="edgeStyle=orthogonalEdgeStyle;rounded=0;orthogonalLoop=1;jettySize=auto;html=1;exitX=1;exitY=0.5;exitDx=0;exitDy=0;fontStyle=1" parent="1" source="pSzdoDPTIERMUr_ss-79-8" edge="1">
          <mxGeometry relative="1" as="geometry">
            <mxPoint x="402" y="675" as="targetPoint" />
            <Array as="points">
              <mxPoint x="560" y="415" />
              <mxPoint x="560" y="675" />
              <mxPoint x="402" y="675" />
            </Array>
          </mxGeometry>
        </mxCell>
        <mxCell id="pSzdoDPTIERMUr_ss-79-8" value="&lt;b&gt;&lt;font style=&quot;font-size: 24px&quot;&gt;Less than 30%&lt;/font&gt;&lt;/b&gt;" style="rhombus;whiteSpace=wrap;html=1;" parent="1" vertex="1">
          <mxGeometry x="220" y="370" width="240" height="90" as="geometry" />
        </mxCell>
        <mxCell id="pSzdoDPTIERMUr_ss-79-9" value="" style="shape=singleArrow;direction=south;whiteSpace=wrap;html=1;" parent="1" vertex="1">
          <mxGeometry x="325" y="460" width="30" height="70" as="geometry" />
        </mxCell>
        <mxCell id="pSzdoDPTIERMUr_ss-79-10" value="&lt;span style=&quot;font-size: 24px&quot;&gt;&lt;b&gt;Motor Gets On&lt;/b&gt;&lt;/span&gt;" style="rounded=0;whiteSpace=wrap;html=1;" parent="1" vertex="1">
          <mxGeometry x="250" y="530" width="180" height="50" as="geometry" />
        </mxCell>
        <mxCell id="pSzdoDPTIERMUr_ss-79-12" value="" style="shape=singleArrow;direction=south;whiteSpace=wrap;html=1;" parent="1" vertex="1">
          <mxGeometry x="325" y="580" width="30" height="70" as="geometry" />
        </mxCell>
        <mxCell id="pSzdoDPTIERMUr_ss-79-13" value="&lt;span style=&quot;font-size: 24px&quot;&gt;&lt;b&gt;End&lt;/b&gt;&lt;/span&gt;" style="ellipse;whiteSpace=wrap;html=1;" parent="1" vertex="1">
          <mxGeometry x="280" y="650" width="120" height="50" as="geometry" />
        </mxCell>
        <mxCell id="pSzdoDPTIERMUr_ss-79-14" value="&lt;b&gt;&lt;font style=&quot;font-size: 18px&quot;&gt;Yes&lt;/font&gt;&lt;/b&gt;" style="text;html=1;strokeColor=none;fillColor=none;align=center;verticalAlign=middle;whiteSpace=wrap;rounded=0;" parent="1" vertex="1">
          <mxGeometry x="350" y="480" width="40" height="20" as="geometry" />
        </mxCell>
        <mxCell id="pSzdoDPTIERMUr_ss-79-30" value="&lt;span style=&quot;font-size: 18px&quot;&gt;&lt;b&gt;No&lt;/b&gt;&lt;/span&gt;" style="text;html=1;strokeColor=none;fillColor=none;align=center;verticalAlign=middle;whiteSpace=wrap;rounded=0;" parent="1" vertex="1">
          <mxGeometry x="490" y="390" width="40" height="20" as="geometry" />
        </mxCell>
      </root>
    </mxGraphModel>
  </diagram>
</mxfile>
